<?xml version="1.0" standalone="no"?>
<!DOCTYPE svg PUBLIC "-//W3C//DTD SVG 1.1//EN" "http://www.w3.org/Graphics/SVG/1.1/DTD/svg11.dtd" >
<svg xmlns="http://www.w3.org/2000/svg">
<metadata></metadata>
<defs>
<font id="squaretype_bregular" horiz-adv-x="1146" >
<font-face units-per-em="2048" ascent="1536" descent="-512" />
<missing-glyph horiz-adv-x="1024" />
<glyph horiz-adv-x="2048" />
<glyph horiz-adv-x="2048" />
<glyph unicode="&#xd;" horiz-adv-x="1024" />
<glyph unicode=" "  horiz-adv-x="1024" />
<glyph unicode="&#x09;" horiz-adv-x="1024" />
<glyph unicode="&#xa0;" horiz-adv-x="1024" />
<glyph unicode="!" horiz-adv-x="321" d="M0 100q0 41 29.5 70t70.5 29t70 -29t29 -70t-29 -70.5t-70 -29.5t-70.5 29.5t-29.5 70.5zM27 356v668h147v-668h-147z" />
<glyph unicode="$" d="M0 244h147q0 -41 28 -69t69 -28h538h4h2h3h2h2q2 0 2 3h4h2h2l2 2h2h2q2 0 2 2h2q2 0 2 2h2h2l2 2h2q2 2 4 2v2h2q2 0 3 2q2 0 2 2h2l2 2l2 2h2q0 2 2 2l2 2v2h2q0 2 2 2q0 2 2 2v2q2 0 2 2l2 2v2q2 0 2 2l2 3v2h2v2l2 2v2q2 2 2 4v2q2 0 2 2v2l2 2v2v2l2 2v2v2v4l3 2v2 v2v3v2v4v100q0 41 -28 68.5t-67 27.5v2h-538q-49 0 -93.5 18.5t-78 51.5t-53 76t-19.5 92v102q0 51 19.5 95.5t52 77t77 52t95.5 19.5h194v86h148v-86h194q49 0 94.5 -19.5t78 -52t52 -77t19.5 -95.5h-147q0 41 -28 69t-69 28h-536q-41 0 -69 -28t-28 -69v-100 q2 -39 30 -65.5t67 -26.5h540v-2q49 0 92.5 -19.5t76 -52.5t52 -76t19.5 -92v-108v-7v-6q0 -2 -1 -3t-1 -3v-6v-6q-2 -2 -2 -6v-6q-2 -2 -2 -7q0 -4 -2 -6q0 -4 -2 -6v-4q-2 -2 -2 -6q-2 -2 -2 -6q-2 -2 -2 -6q-2 -2 -2 -4q-2 -2 -2 -3.5t-3 -3.5q0 -4 -2 -6l-2 -4 q-2 -2 -2 -6l-4 -4q0 -2 -1 -3t-1 -3l-4 -4q0 -2 -1 -3t-1 -4l-4 -4l-4 -4q0 -2 -2 -4q-4 -4 -4 -6q-4 0 -4 -4l-4 -4l-5 -4l-4 -4l-4 -4l-4 -5l-4 -4l-4 -4q-2 0 -6 -4l-4 -2l-4 -4q-2 -2 -3 -2t-4 -2l-4 -2l-4 -4q-2 0 -3 -1t-3 -1l-4 -4q-2 0 -3 -1t-3 -1t-4 -2t-3 -2 t-3 -3q-4 0 -7 -2q-4 0 -4 -2q-4 0 -6 -2q-4 0 -6 -2q-4 0 -6 -2q-2 0 -4 -2h-6q-2 -2 -6 -2t-7 -2h-6q-2 0 -3 -1t-3 -1h-6h-6q-2 -2 -6 -2h-6h-7h-200v-86h-148v86h-194q-51 0 -95.5 19.5t-77 52t-52 77t-19.5 95.5z" />
<glyph unicode="%" horiz-adv-x="884" d="M0 0l592 1024h170l-592 -1024h-170zM0 686q0 41 29.5 70.5t70.5 29.5t70 -29.5t29 -70.5t-29 -70.5t-70 -29.5t-70.5 29.5t-29.5 70.5zM561 342q0 41 30 70.5t71 29.5t70.5 -29.5t29.5 -70.5t-30 -70.5t-70 -29.5q-41 0 -71 29.5t-30 70.5z" />
<glyph unicode="(" horiz-adv-x="366" d="M0 244v536q0 49 19.5 94.5t52 78t77 52t95.5 19.5v-147q-41 0 -69 -28t-28 -69v-536q0 -41 28 -69t69 -28v-147q-51 0 -95.5 19.5t-77 52t-52 77t-19.5 95.5z" />
<glyph unicode=")" horiz-adv-x="366" d="M0 0v147q41 0 68.5 28t27.5 69v536q0 41 -27.5 69t-68.5 28v147q49 0 94 -19.5t78 -52t52.5 -78t19.5 -94.5v-536q0 -51 -19.5 -95.5t-52.5 -77t-78 -52t-94 -19.5z" />
<glyph unicode="+" horiz-adv-x="786" d="M0 436v148h258v258h148v-258h258v-148h-258v-258h-148v258h-258z" />
<glyph unicode="," horiz-adv-x="321" d="M0 98q0 41 28.5 71t69.5 30t71 -30t30 -71v-4v-221l-76 129q-8 -2 -25 -2q-41 0 -69.5 28.5t-28.5 69.5z" />
<glyph unicode="-" horiz-adv-x="786" d="M0 436v148h664v-148h-664z" />
<glyph unicode="." horiz-adv-x="321" d="M0 100q0 41 29.5 70t70.5 29t70 -29t29 -70t-29 -70.5t-70 -29.5t-70.5 29.5t-29.5 70.5z" />
<glyph unicode="/" horiz-adv-x="884" d="M0 0l592 1024h170l-592 -1024h-170z" />
<glyph unicode="0" d="M0 244v536q0 49 19.5 94.5t52 78t77 52t95.5 19.5h536q49 0 94.5 -19.5t78 -52t52 -78t19.5 -94.5v-536q0 -51 -19.5 -95.5t-52 -77t-78 -52t-94.5 -19.5h-536q-51 0 -95.5 19.5t-77 52t-52 77t-19.5 95.5zM147 244q0 -41 28 -69t69 -28h536q41 0 69 28t28 69v536 q0 41 -28 69t-69 28h-536q-41 0 -69 -28t-28 -69v-536z" />
<glyph unicode="1" horiz-adv-x="362" d="M0 877v147q49 0 93 -19.5t76 -53t51.5 -78t19.5 -93.5v-780h-148v780q0 39 -26.5 66.5t-65.5 30.5z" />
<glyph unicode="2" d="M0 244v100v2q0 49 19.5 92t53 76t78 51.5t93.5 18.5h538v2q39 0 67 27.5t28 66.5v22v78v2v2v4v3v2v2l-3 2v4v2v2l-2 2v2v2l-2 2v2q0 2 -2 2v2q0 2 -2 2v2q0 2 -2 2v2l-2 2v2l-2 3q0 2 -2 2v2l-2 2q0 2 -2 2v2q-2 0 -2 2h-2q0 2 -2 2q0 2 -2 2v2q-2 0 -2 2h-2l-2 2l-2 2 h-2q0 2 -2 2l-3 2h-2q0 2 -2 2h-2q0 2 -2 2h-2q0 2 -2 2h-2q0 2 -2 2h-2q-2 0 -2 2h-2h-2l-2 2h-2h-2h-4l-2 3h-2h-2h-3h-2h-4h-2h-536q-41 0 -69 -28t-28 -69h-147q0 49 19.5 94.5t52 78t77 52t95.5 19.5h536h6h7h6q2 0 3 -1t3 -1h6h6q2 -2 6 -2h6q2 -2 7 -2q2 0 3 -1t3 -1 q4 0 6 -2h4q2 -2 6 -2q2 -2 6 -2q2 -2 6 -2q0 -2 4 -2q2 -2 3.5 -2t3.5 -3q4 0 6 -2t4 -2q2 -2 3 -2t3 -2q2 0 4 -2q2 0 3 -1t3 -1l4 -4l4 -2q4 -4 7 -4l4 -4l4 -2q4 -4 6 -4q0 -4 4 -4l4 -4l4 -5l4 -4l4 -4l5 -4l4 -4q0 -4 4 -4q0 -2 4 -6q2 -2 2 -4l4 -4q0 -2 4 -7 q2 -2 2 -4l4 -4q0 -2 1 -3t1 -3l4 -4q0 -4 2 -6l2 -4q2 -2 2 -6q2 -2 2.5 -3t2.5 -4q0 -4 2 -4q0 -4 2 -6q0 -4 2 -6q0 -4 2 -6v-4q2 -2 2 -6q0 -2 1 -3t1 -3v-7q2 -2 2 -6t2 -6v-6v-6q0 -2 1 -3t1 -3v-6v-7v-6v-78v-22v-2q0 -49 -19.5 -92t-52 -76t-75.5 -52.5t-93 -19.5 v-2h-540q-39 0 -67 -26.5t-30 -65.5v-100q0 -41 28 -69t69 -28h536q41 0 69 28t28 69h147q0 -51 -19.5 -95.5t-52 -77t-78 -52t-94.5 -19.5h-536q-51 0 -95.5 19.5t-77 52t-52 77t-19.5 95.5z" />
<glyph unicode="3" d="M0 244h147q0 -41 28 -69t69 -28h538h4h2h3h2h2q2 0 2 3h4h2h2l2 2h2h2l2 2h2q2 0 2 2h2h2l2 2h2l2 2q2 0 2 2h2q2 0 3 2h2l2 2l2 2l2 2h2q0 2 2 2l2 2v2h2q0 2 2 2q0 2 2 2v2q2 0 2 2l2 2v2q2 0 2 2l2 3q0 2 2 2v2l2 2v2q2 2 2 4v2q2 0 2 2v2l2 2v2v2l2 2v2v2v2q0 2 3 4 v2v2v3v2v104q0 41 -27 67.5t-66 28.5v-2h-282v152h282v-2q39 2 66 28.5t27 65.5v104v4v3v2v2l-3 2v4v2v2l-2 2v2v2l-2 2v2q0 2 -2 2v2q0 2 -2 2v2q0 2 -2 2v2q0 2 -2 2v2l-2 3q0 2 -2 2v2q-2 0 -2 2l-2 2v2q-2 0 -2 2h-2q0 2 -2 2v2q-2 0 -2 2q-2 0 -2 2h-2q0 2 -2 2l-2 2 h-2q0 2 -2 2l-3 2h-2l-2 2h-2q0 2 -2 2h-2q0 2 -2 2h-2q0 2 -2 2h-2l-2 2h-2h-2l-2 2h-2h-2h-4l-2 3h-2h-2h-3h-2h-4h-538q-41 0 -69 -28t-28 -69h-147q0 49 19.5 94.5t52 78t77 52t95.5 19.5h536h6h7h6q2 0 3 -1t3 -1h6h6q2 -2 6 -2h6q2 -2 7 -2q2 0 3 -1t3 -1q4 0 6 -2h4 q2 -2 6 -2q2 -2 6 -2q2 -2 6 -2q0 -2 4 -2q2 -2 3.5 -2t3.5 -3q4 0 6 -2l4 -2q2 -2 3 -2t3 -2q2 0 4 -2q2 0 3 -1t3 -1l4 -4q2 0 4 -2q4 -4 7 -4l4 -4q2 0 4 -2q4 -4 6 -4q0 -4 4 -4l4 -4l4 -5l4 -4l4 -4l5 -4l4 -4l4 -4q0 -2 1 -3t1 -3q4 0 4 -4l4 -4q2 -2 2 -3t2 -4l2 -4 l4 -4q0 -2 1 -3t1 -3l4 -4q0 -4 2 -6q0 -2 2 -4t2 -6q2 -2 2.5 -3t2.5 -4q0 -4 2 -4q0 -4 2 -6q0 -4 2 -6q0 -4 2 -6v-4q2 -2 2 -6q0 -2 1 -3t1 -3v-7q2 -2 2 -6t2 -6v-6v-6q0 -2 1 -3t1 -3v-6v-7v-108q-2 -49 -20.5 -91t-49.5 -75q31 -33 49.5 -75t20.5 -91v-108v-7v-6 q0 -2 -1 -3t-1 -3v-6v-6q-2 -2 -2 -6t-2 -6v-7q0 -2 -1 -3t-1 -3q0 -4 -2 -6v-4q-2 -2 -2 -6q-2 -2 -2 -6q-2 -2 -2 -6q-2 -2 -2 -4q-2 -2 -2 -3.5t-3 -3.5q0 -4 -2 -6q0 -2 -1 -2t-1 -2q-2 -2 -2 -6l-4 -4q0 -2 -1 -3t-1 -3l-4 -4q0 -2 -1 -3t-1 -4l-4 -4l-4 -4q0 -4 -4 -4 q0 -2 -1 -3t-1 -3l-4 -4l-4 -4l-5 -4l-4 -4l-4 -4l-4 -5l-4 -4l-4 -4q-2 0 -6 -4l-4 -2l-4 -4q-2 -2 -3 -2t-4 -2l-4 -2l-4 -4q-2 0 -3 -1t-3 -1l-4 -4q-2 0 -3 -1t-3 -1t-4 -2t-3 -2t-3 -3q-4 0 -7 -2q-4 0 -4 -2q-4 0 -6 -2q-4 0 -6 -2q-4 0 -6 -2q-2 0 -4 -2h-6 q-2 -2 -6 -2t-7 -2h-6q-2 0 -3 -1t-3 -1h-6h-6q-2 -2 -6 -2h-6h-7h-542q-51 0 -95.5 19.5t-77 52t-52 77t-19.5 95.5z" />
<glyph unicode="4" horiz-adv-x="1136" d="M0 639v385h145v-385q0 -41 28 -68.5t69 -27.5h530q37 0 63.5 24.5t30.5 59.5v10h2v2v385h146v-385q0 -12 -2 -18v-617v-4h-146v4v412q-43 -19 -94 -19h-530q-49 0 -93.5 19.5t-77 52.5t-52 77t-19.5 93z" />
<glyph unicode="5" d="M0 244h147q0 -41 28 -69t69 -28h536h2h4h2h3h2h2q2 0 2 3h4h2h2l2 2h2h2q2 0 2 2h2q2 0 2 2h2h2q2 2 4 2l2 2q2 0 2 2h2q2 0 3 2h2l2 2q2 0 2 2l2 2h2q0 2 2 2l2 2v2h2q0 2 2 2q0 2 2 2v2q2 0 2 2l2 2v2q2 0 2 2l2 3l2 2v2l2 2v2q2 2 2 4v2q2 0 2 2v2l2 2v2v2l2 2v2v2v2 q0 2 1.5 2t1.5 2v2v2v3v2v4v2v78v20q0 41 -28 68.5t-67 27.5v2h-538q-49 0 -93.5 18.5t-78 51.5t-53 76t-19.5 92v2v100q0 49 19.5 94.5t52 78t77 52t95.5 19.5h536q51 0 95.5 -19.5t77 -52t52 -78t19.5 -94.5h-147q0 41 -28 69t-69 28h-536q-41 0 -69 -28t-28 -69v-100 q2 -39 30 -65.5t67 -26.5h540v-2q49 0 92.5 -19.5t76 -52.5t52 -76t19.5 -92v-4v-20v-78v-6v-7v-6q0 -2 -1 -3t-1 -3v-6v-6q-2 -2 -2 -6v-6q-2 -2 -2 -7q0 -2 -1 -3t-1 -3q0 -4 -2 -6v-4q-2 -2 -2 -6q-2 -2 -2 -6q-2 -2 -2 -6q-2 -2 -2 -4q-2 -2 -2 -3.5t-3 -3.5q0 -4 -2 -6 q0 -2 -1 -2t-1 -2t-1 -3t-1 -3l-4 -4q0 -2 -1 -3t-1 -3l-4 -4q0 -2 -1 -3t-1 -4l-4 -4l-4 -4q0 -2 -2 -4q-4 -4 -4 -6l-4 -4l-4 -4l-5 -4l-4 -4l-4 -4l-4 -5l-4 -4l-4 -4q-2 0 -6 -4l-4 -2l-4 -4q-2 -2 -3 -2t-4 -2l-4 -2l-4 -4q-2 0 -3 -1t-3 -1l-4 -4q-2 0 -3 -1t-3 -1 t-4 -2t-3 -2t-3 -3q-4 0 -7 -2q-2 0 -4 -2q-4 0 -6 -2q-4 0 -6 -2q-4 0 -6 -2q-2 0 -4 -2h-6q-2 -2 -6 -2t-7 -2h-6q-2 0 -3 -1t-3 -1h-6h-6q-2 -2 -6 -2h-6h-7h-6h-536q-51 0 -95.5 19.5t-77 52t-52 77t-19.5 95.5z" />
<glyph unicode="6" d="M0 244v536q0 49 19.5 94.5t52 78t77 52t95.5 19.5h536q49 0 94.5 -19.5t78 -52t52 -78t19.5 -94.5h-147q0 41 -28 69t-69 28h-536q-41 0 -69 -28t-28 -69v-194h633q49 0 92 -18.5t76 -49.5t53.5 -73t22.5 -91v-110v-2q0 -49 -19.5 -93.5t-52 -77t-78 -52t-94.5 -19.5 h-536q-51 0 -95.5 19.5t-77 52t-52 77t-19.5 95.5zM147 244q0 -41 28 -69t69 -28h536q41 0 69 28t28 69v102q-2 39 -30 65.5t-67 26.5h-633v-194z" />
<glyph unicode="7" d="M0 780q0 49 19.5 94.5t52 78t77 52t95.5 19.5h536q49 0 94.5 -19.5t78 -52t52 -78t19.5 -94.5v-780h-147v780q0 41 -28 69t-69 28h-536q-41 0 -69 -28t-28 -69h-147z" />
<glyph unicode="8" d="M0 225v6v7v108q4 100 70 166q-66 66 -70 166v108v7v6q0 4 2 6v6v6q0 2 1 3t1 3v6q2 2 2 7q0 4 2 6v6q2 0 2 4q2 2 2 6q2 2 2 6q0 2 1 3t1 3q2 0 2 4q2 2 2 7q2 2 2.5 3t2.5 3l2 4q0 2 1 3t1 3l4 4q0 2 1 3t1 3l4 4q0 2 2 4t2 3.5t2 3.5l4 4q0 2 2 4l4 4q0 2 2 2q0 2 1 2 t1 2l4 4l5 4l4 4l4 4l4 5l4 4q4 0 4 4q2 0 6 4l4 2l4 4q2 0 2 1t2 1l3 2l4 2l4 4q2 0 3 1t3 1l2 2q2 0 2 1t2 1t2 1t2 1t2 1t2 1q2 2 6 2q2 2 3 2.5t4 2.5q2 0 4 2q4 0 6 2q4 0 6 2h4q0 2 2 2h4q2 2 6 2q2 0 3 1t3 1h7v2h6q4 0 6 2h6h4h2q2 0 3 1t3 1h6h7h6h536h6h7h6 q2 0 3 -1t3 -1h2h4h6q2 -2 6 -2h6q2 -2 7 -2q2 0 3 -1t3 -1q4 0 4 -2h6q2 -2 6 -2q2 -2 6 -2q2 -2 6 -2q0 -2 4 -2q2 -2 3.5 -2t3.5 -3q4 0 4 -2q2 0 3 -1t3 -1t2 -1t2 -1l4 -2l2 -2q2 0 3 -1t3 -1l4 -4q2 0 4 -2q4 -4 7 -4l4 -4q2 0 4 -2l4 -4l2 -2q2 0 2 -1t2 -1l4 -4 l4 -5l4 -4l4 -4l5 -4l4 -4q0 -4 4 -4v-2l2 -4q4 0 4 -4l4 -4q0 -2 2 -4l2 -3l2 -4l4 -4q0 -2 1 -3t1 -3q2 -2 2 -4h2q0 -4 2 -6q0 -2 2 -4t2 -6q2 -2 2.5 -3t2.5 -4q0 -4 2 -4q0 -4 2 -6q0 -4 2 -6v-4l2 -2v-4q2 -2 2 -6q0 -2 1 -3t1 -3v-7h2v-6q0 -4 2 -6v-6v-6q0 -4 2 -6 v-6v-7v-108q-2 -49 -20.5 -91t-49.5 -75q31 -33 49.5 -75t20.5 -91v-108v-7v-6q-2 -2 -2 -6v-6v-6q-2 -2 -2 -6t-2 -6v-7q0 -2 -1 -3t-1 -3q0 -4 -2 -6v-4l-2 -2v-4q-2 -2 -2 -6q-2 -2 -2 -6q-2 -2 -2 -4q-2 -2 -2 -3.5t-3 -3.5q0 -4 -2 -6q0 -2 -1 -2t-1 -2q-2 -2 -2 -6 l-4 -4q0 -2 -1 -3t-1 -3l-4 -4q0 -2 -2 -4v-3l-4 -4l-4 -4q0 -4 -4 -4q0 -2 -1 -3t-1 -3q-4 0 -4 -4l-4 -4l-5 -4l-4 -4l-4 -4l-4 -5l-4 -4q-2 -2 -4 -2q0 -2 -2 -2l-4 -4l-4 -2l-4 -4q-2 -2 -3 -2t-4 -2l-4 -2l-4 -4q-2 0 -3 -1t-3 -1l-4 -4q-2 0 -3 -1t-3 -1t-3 -1t-3 -1 l-4 -5q-4 0 -7 -2q-4 0 -4 -2q-4 0 -6 -2q-4 0 -6 -2q-4 0 -6 -2q-4 0 -6 -2h-4q-2 -2 -6 -2t-7 -2h-6q-2 0 -3 -1t-3 -1h-6h-6q-2 -2 -6 -2h-6h-7h-548h-7h-6q-4 0 -6 2h-2h-4h-6q-2 0 -3 1t-3 1h-6q-2 2 -7 2q-4 0 -6 2h-6q-2 2 -4 2q-2 2 -6 2q-2 2 -6 2q-2 2 -6 2 q-2 2 -4 2q-2 2 -7 2q-2 2 -3 2.5t-3 2.5q-2 0 -2 1t-2 1t-3 1t-3 1l-4 4q-2 0 -3 1t-3 1l-4 4q-2 0 -4 2l-3 2q-2 0 -2 1t-2 1l-4 4q-2 0 -4 2q-4 4 -6 4l-4 4l-4 4l-4 5q-4 0 -4 4q-4 0 -4 4l-5 4l-4 4l-4 4q-2 2 -2 3t-2 3l-2 4l-4 4l-4 4q0 2 -1 3.5t-1 3.5l-4 4 q0 2 -1 3t-1 3l-4 4q0 2 -1 3t-1 3t-1 2t-1 2q-2 2 -2 3t-3 3q0 4 -2 7q0 2 -2 4q0 2 -1 3t-1 3q0 4 -2 6q0 4 -2 6l-2 4v6q-2 2 -2 6t-2 7v6q0 2 -1 3t-1 3v6v6q-2 2 -2 6zM147 244q0 -31 16.5 -54.5t41.5 -33.5h2v-2q14 -6 37 -7h536q49 0 80 41v2q16 23 17 54v98 q0 41 -27 67.5t-66 28.5v-2h-544v2q-39 -2 -66 -28.5t-27 -67.5v-98zM147 680q0 -39 27 -65.5t66 -28.5v2h544v-2q39 2 66 28.5t27 65.5v100q0 31 -17 54q-31 43 -80 43h-536q-41 0 -69 -28t-28 -69v-100z" />
<glyph unicode="9" d="M0 244h147q0 -41 28 -69t69 -28h536q41 0 69 28t28 69v194h-633q-49 0 -92 18.5t-76 49.5t-53.5 73t-22.5 91v110v2q0 49 19.5 93.5t52 77t78 52t94.5 19.5h536q51 0 95.5 -19.5t77 -52t52 -78t19.5 -94.5v-536q0 -51 -19.5 -95.5t-52 -77t-77 -52t-95.5 -19.5h-536 q-51 0 -95.5 19.5t-77 52t-52 77t-19.5 95.5zM147 678q2 -39 30 -65.5t67 -26.5h633v194q0 41 -28 69t-69 28h-536q-41 0 -69 -28t-28 -69v-102z" />
<glyph unicode="&#x3c;" horiz-adv-x="1150" d="M0 502v10v10q0 51 19.5 92t53 72t78 52.5t93.5 37.5l784 248v-154l-784 -247q-39 -12 -68 -36t-29 -65v-10v-10q0 -41 29 -64.5t68 -36.5l784 -247v-154l-784 248q-49 14 -93.5 36.5t-78 53.5t-53 71t-19.5 93z" />
<glyph unicode="=" horiz-adv-x="786" d="M0 291v145h664v-145h-664zM0 584v145h664v-145h-664z" />
<glyph unicode="&#x3e;" horiz-adv-x="1150" d="M0 0v154l784 247q39 12 68 36t29 65v10v10q0 41 -29 64.5t-68 36.5l-784 247v154l784 -248q49 -16 93.5 -37.5t78 -52.5t53 -72t19.5 -92v-10v-10q0 -53 -19.5 -93t-53 -71t-77.5 -53.5t-94 -36.5z" />
<glyph unicode="?" horiz-adv-x="1183" d="M0 100q0 41 29.5 70t70.5 29t70 -29t29 -70t-29 -70.5t-70 -29.5t-70.5 29.5t-29.5 70.5zM37 356q2 47 22.5 89t52 73t74.5 49.5t90 18.5v2h541q39 0 66.5 26.5t29.5 65.5v100q0 41 -27.5 69t-68.5 28h-536q-41 0 -69 -28t-28 -69h-147q0 49 19.5 94.5t52 78t77.5 52 t95 19.5h536q51 0 95 -19.5t77 -52t52.5 -78t19.5 -94.5v-102q0 -49 -19.5 -92t-53.5 -76t-78 -51.5t-93 -18.5h-538v-2q-35 0 -62 -23.5t-33 -58.5h-147z" />
<glyph unicode="@" d="M0 244v536q0 49 19.5 94.5t52 78t77 52t95.5 19.5h536q49 0 94.5 -19.5t78 -52t52 -77t19.5 -95.5v-194q0 -49 -19.5 -94.5t-52 -78t-77 -52t-93.5 -19.5h-198q-49 0 -94.5 19.5t-78 52t-52 77t-19.5 95.5v2q0 49 19.5 94t52 78t78 52t94.5 19h10q51 0 95 -19t77 -52 t52.5 -78t19.5 -94v-2h-148v2q0 41 -27.5 68.5t-68.5 27.5h-10q-41 0 -69 -27.5t-28 -68.5v-2q0 -41 28 -69t69 -28h196q41 0 69 28t28 69v194q0 41 -28 69t-69 28h-536q-41 0 -69 -28t-28 -69v-536q0 -41 28 -69t69 -28h536q41 0 69 28t28 69h147q0 -51 -19.5 -95.5 t-52 -77t-78 -52t-94.5 -19.5h-536q-51 0 -95.5 19.5t-77 52t-52 77t-19.5 95.5z" />
<glyph unicode="A" horiz-adv-x="1142" d="M0 242v534q0 49 19.5 94t52 78t77 52.5t93.5 19.5h536q49 0 93 -19.5t77 -52.5t52.5 -78t19.5 -94v-534v-11q4 -37 30.5 -62.5t63.5 -27.5v-145q-49 0 -92 18.5t-78 51.5q-33 -31 -76 -48.5t-90 -17.5h-536q-49 0 -93.5 19.5t-77 52t-52 77t-19.5 93.5zM147 242 q0 -41 28 -69t67 -28h536q37 0 63.5 26t30.5 62v5v4v534q0 41 -27.5 68.5t-66.5 27.5h-536q-39 0 -67 -27.5t-28 -68.5v-534z" />
<glyph unicode="B" horiz-adv-x="1144" d="M0 244v536v8v635h147v-419q43 18 97 18h536q49 0 93.5 -19.5t77 -52t52 -77t19.5 -93.5v-536q0 -51 -19.5 -95.5t-52 -77t-77 -52t-93.5 -19.5h-536q-51 0 -95.5 19.5t-77 52t-52 77t-19.5 95.5zM147 244q0 -41 28 -69t69 -28h536q41 0 69 28t28 69v536q0 41 -28 69 t-69 28h-536q-39 0 -66.5 -27t-30.5 -66v-4v-536z" />
<glyph unicode="C" horiz-adv-x="1155" d="M0 244v536q0 49 19.5 94.5t52 78t77 52t95.5 19.5h536q49 0 94.5 -19.5t78 -52t52 -78t19.5 -94.5h-147q0 41 -28 69t-69 28h-536q-41 0 -69 -28t-28 -69v-536q0 -41 28 -69t69 -28h536q41 0 69 28t28 69h147q0 -51 -19.5 -95.5t-52 -77t-78 -52t-94.5 -19.5h-536 q-51 0 -95.5 19.5t-77 52t-52 77t-19.5 95.5z" />
<glyph unicode="D" d="M0 244v536q0 49 19.5 94.5t52 78t77 52t95.5 19.5h536q49 0 97 -20v421h147v-637v-8v-536q0 -51 -19.5 -95.5t-52 -77t-78 -52t-94.5 -19.5h-536q-51 0 -95.5 19.5t-77 52t-52 77t-19.5 95.5zM147 244q0 -41 28 -69t69 -28h536q41 0 69 28t28 69v536v6q-2 37 -30 64 t-67 27h-536q-41 0 -69 -28t-28 -69v-536z" />
<glyph unicode="E" d="M0 244v536q0 49 19.5 94.5t52 78t77 52t95.5 19.5h536q49 0 94.5 -19.5t78 -52t52 -77t19.5 -93.5v-112q-2 -49 -22.5 -91t-53.5 -73t-76 -49.5t-92 -18.5h-633v-194q0 -41 28 -69t69 -28h536q41 0 69 28t28 69h147q0 -51 -19.5 -95.5t-52 -77t-78 -52t-94.5 -19.5h-536 q-51 0 -95.5 19.5t-77 52t-52 77t-19.5 95.5zM147 586h633q39 0 66.5 26.5t30.5 65.5v102q0 41 -28 69t-69 28h-536q-41 0 -69 -28t-28 -69v-194z" />
<glyph unicode="F" horiz-adv-x="471" d="M0 0v1180q0 49 18.5 93t51 76.5t74.5 52t92 21.5h4h108v-147h-108q-39 -2 -66 -29.5t-27 -66.5v-158h201v-145h-201v-877h-147z" />
<glyph unicode="G" d="M0 244v536q0 49 19.5 94.5t52 78t77 52t95.5 19.5h536q49 0 94.5 -19.5t78 -52t52 -78t19.5 -94.5v-536v-19v-626h-147v421q-43 -20 -97 -20h-536q-51 0 -95.5 19.5t-77 52t-52 77t-19.5 95.5zM147 244q0 -41 28 -69t69 -28h536q37 0 64.5 25t32.5 59v13v536q0 41 -28 69 t-69 28h-536q-41 0 -69 -28t-28 -69v-536z" />
<glyph unicode="H" d="M0 0v780v19v622v4h147v-4v-417q23 10 46.5 15t50.5 5h536q49 0 94.5 -19.5t78 -52t52 -78t19.5 -94.5v-780h-147v780q0 41 -28 69t-69 28h-536q-37 0 -64.5 -25t-32.5 -61v-11v-780h-147z" />
<glyph unicode="I" horiz-adv-x="387" d="M0 1184q0 41 29.5 70.5t70.5 29.5t70 -29.5t29 -70.5t-29 -70t-70 -29t-70.5 29t-29.5 70zM27 0v780q0 49 18 93.5t51 78t76 53t92 19.5v-147q-37 -2 -63.5 -30t-26.5 -67v-780h-147z" />
<glyph unicode="J" horiz-adv-x="385" d="M0 -254q39 2 65.5 29.5t26.5 66.5v158v1024h148v-1024v-158q0 -49 -19.5 -93t-51.5 -76.5t-76 -52t-93 -21.5v147zM63 1184q0 41 30 69.5t71 28.5t69.5 -28.5t28.5 -69.5t-28.5 -71t-69.5 -30t-71 30t-30 71z" />
<glyph unicode="K" d="M0 0v344v18v1059v4h147v-4v-852q44 19 97 19h112h424q41 0 69 28.5t28 67.5v346h147v-346q0 -49 -18.5 -92t-51.5 -78q33 -33 51.5 -76t18.5 -94v-344h-147v344q0 41 -28 68.5t-69 27.5h-536q-37 0 -64.5 -24.5t-32.5 -59.5v-63v-293h-147z" />
<glyph unicode="L" horiz-adv-x="362" d="M0 244v1179h147v-1179q0 -39 27 -66.5t66 -30.5v-147q-49 0 -93.5 19.5t-77 53t-51 78t-18.5 93.5z" />
<glyph unicode="M" horiz-adv-x="2019" d="M0 0v780q0 51 19.5 95.5t52 77t77 52t95.5 19.5h534q49 0 93 -18.5t77 -51.5q33 33 76 51.5t94 18.5h535q49 0 94 -19.5t78 -52t52 -77t19 -95.5v-780h-147v780q0 41 -27.5 69t-68.5 28h-535q-39 0 -65.5 -26t-30.5 -60v-11v-780h-148v780v11q-4 35 -30.5 60.5 t-65.5 25.5h-534q-41 0 -69 -28t-28 -69v-780h-147z" />
<glyph unicode="N" horiz-adv-x="1144" d="M0 0v780q0 51 19.5 95.5t52 77t77 52t95.5 19.5h534q51 0 95.5 -19.5t77 -52t52 -77t19.5 -95.5v-780h-148v780q0 41 -27.5 69t-68.5 28h-534q-41 0 -69 -28t-28 -69v-780h-147z" />
<glyph unicode="O" d="M0 244v536q0 49 19.5 94.5t52 78t77 52t95.5 19.5h536q49 0 94.5 -19.5t78 -52t52 -78t19.5 -94.5v-536q0 -51 -19.5 -95.5t-52 -77t-78 -52t-94.5 -19.5h-536q-51 0 -95.5 19.5t-77 52t-52 77t-19.5 95.5zM147 244q0 -41 28 -69t69 -28h536q41 0 69 28t28 69v536 q0 41 -28 69t-69 28h-536q-41 0 -69 -28t-28 -69v-536z" />
<glyph unicode="P" d="M0 225v19v536q0 49 19.5 94.5t52 78t77 52t95.5 19.5h536q49 0 94.5 -19.5t78 -52t52 -78t19.5 -94.5v-536q0 -51 -19.5 -95.5t-52 -77t-78 -52t-94.5 -19.5h-536q-55 0 -97 20v-421h-147v626zM147 231q4 -35 32 -59.5t65 -24.5h536q41 0 69 28t28 69v536q0 41 -28 69 t-69 28h-536q-41 0 -69 -28t-28 -69v-536v-13z" />
<glyph unicode="Q" horiz-adv-x="1236" d="M0 244v536q0 51 19.5 95.5t52 77t77 52t95.5 19.5h536q49 0 94.5 -19.5t78 -52t52 -77t19.5 -95.5v-536q0 -4 -1 -8.5t-1 -8.5v-383q0 -39 26.5 -66.5t65.5 -29.5v-147q-49 0 -93 19.5t-76 53t-51.5 77.5t-19.5 93v176q-47 -20 -94 -20h-536q-51 0 -95.5 19.5t-77 52 t-52 78t-19.5 94.5zM147 244q0 -41 28 -69t69 -28h536q37 0 63.5 25t30.5 61v144h3v403q0 41 -28 69t-69 28h-536q-41 0 -69 -28t-28 -69v-536z" />
<glyph unicode="R" d="M0 0v780q0 51 19.5 95.5t52 77t77 52t95.5 19.5h536q49 0 94.5 -19.5t78 -52t52 -77t19.5 -95.5h-147q0 41 -28 69t-69 28h-536q-41 0 -69 -28t-28 -69v-780h-147z" />
<glyph unicode="S" d="M0 244h147q0 -41 28 -69t69 -28h536q41 0 69 28t28 69v100q-2 39 -30 65.5t-67 26.5h-540v2q-49 0 -92.5 19.5t-76 52.5t-52 76t-19.5 92v2v22v78q0 90 37 140.5t84 72.5q53 27 123 31h536q49 0 94.5 -19.5t78 -52t52 -78t19.5 -94.5h-147q0 41 -28 69t-69 28h-536 q-27 -2 -49 -13q-18 -10 -33 -29.5t-15 -54.5v-78v-22q0 -39 28 -66.5t67 -27.5v-2h538q49 0 93.5 -18.5t78 -51.5t53 -76t19.5 -92v-2v-100q0 -51 -19.5 -95.5t-52 -77t-78 -52t-94.5 -19.5h-536q-51 0 -95.5 19.5t-77 52t-52 77t-19.5 95.5z" />
<glyph unicode="T" d="M0 244v1181h147v-419q23 10 44.5 15t46.5 5h6h780v-147h-780q-41 0 -69 -28t-28 -69v-538q0 -39 27 -66.5t66 -30.5h540q41 0 69 28t28 67h147q0 -47 -17.5 -88t-46 -74t-69.5 -53.5t-86 -24.5v-2h-25h-540h-2q-49 2 -92.5 21.5t-76 52t-51 77t-18.5 93.5z" />
<glyph unicode="U" d="M0 244v782h147v-782q0 -41 28 -69t69 -28h536q41 0 69 28t28 69v782h147v-782q0 -51 -19.5 -95.5t-52 -77t-78 -52t-94.5 -19.5h-536q-51 0 -95.5 19.5t-77 52t-52 77t-19.5 95.5z" />
<glyph unicode="V" horiz-adv-x="1142" d="M0 1024h154l245 -782q12 -37 36 -66t65 -29h10h10q41 0 64.5 29t36.5 66l245 782h154l-248 -782q-14 -47 -35.5 -91.5t-52.5 -78t-72 -53t-92 -19.5h-10h-10q-53 0 -93 19.5t-71 53t-53.5 78t-36.5 91.5z" />
<glyph unicode="W" horiz-adv-x="2009" d="M0 1024h154l245 -782q12 -37 36 -66t65 -29h10h10q41 0 64.5 29t36.5 66l245 782h154l246 -782q12 -37 35.5 -66t64.5 -29h10h10q41 0 65 29t36 66l246 782h153l-248 -782q-14 -47 -35.5 -91.5t-52 -78t-71.5 -53t-93 -19.5h-10h-10q-53 0 -93 19.5t-71 53t-53.5 78 t-36.5 91.5l-170 540l-170 -540q-14 -47 -35.5 -91.5t-52.5 -78t-72 -53t-92 -19.5h-10h-10q-53 0 -93 19.5t-71 53t-53.5 78t-36.5 91.5z" />
<glyph unicode="X" horiz-adv-x="1142" d="M0 0l246 422q16 27 36.5 49.5t49.5 40.5q-29 18 -49.5 40.5t-36.5 47.5l-246 424h154l231 -397q14 -25 49 -38.5t75 -13.5t74.5 11.5t49.5 36.5l233 401h154l-246 -424q-16 -25 -36.5 -47.5t-49.5 -40.5q29 -18 49.5 -40.5t36.5 -49.5l246 -422h-154l-225 385 q-14 25 -52 36t-80 11t-80 -13t-52 -38l-223 -381h-154z" />
<glyph unicode="Y" d="M0 244v780h147v-780q0 -41 28 -69t69 -28h536q41 0 69 28t28 69v133v647h147v-647v-133v-402q0 -49 -18.5 -93t-51 -76.5t-76.5 -52t-94 -21.5v147q39 2 66 29.5t27 66.5v178q-48 -20 -97 -20h-536q-51 0 -95.5 19.5t-77 52t-52 78t-19.5 94.5z" />
<glyph unicode="Z" horiz-adv-x="1161" d="M0 244q0 55 48 104t116 82l690 322q29 14 26 31.5t-12 35.5q0 2 -2 2v2q0 2 -2 2v2l-2 2v2l-2 3q0 2 -2 2v2l-2 2q0 2 -2 2v2q-2 0 -2 2h-2q0 2 -2 2q0 2 -2 2v2q-2 0 -2 2h-2l-2 2l-2 2h-2q0 2 -2 2l-3 2h-2q0 2 -2 2h-2q0 2 -2 2h-2q0 2 -2 2h-2q0 2 -2 2h-2q-2 0 -2 2 h-2h-2l-2 2h-2h-2h-4l-2 3h-2h-2h-3h-2h-4h-2h-536q-41 0 -69 -28t-28 -69h-147q0 49 19.5 94.5t52 78t77 52t95.5 19.5h536h6h7h6q2 0 3 -1t3 -1h6h6q2 -2 6 -2h6q2 -2 7 -2q2 0 3 -1t3 -1q4 0 6 -2h4q2 -2 6 -2q2 -2 6 -2q2 -2 6 -2q0 -2 4 -2q2 -2 3.5 -2t3.5 -3 q4 0 4 -2q2 0 3 -1t3 -1q2 -2 3 -2t3 -2q2 0 4 -2q2 0 3 -1t3 -1l4 -4l4 -2q37 -25 70 -71t46 -96q7 -26 7 -51q0 -23 -6 -45q-12 -46 -63 -71q-96 -45 -181.5 -84t-168 -77.5t-167.5 -78.5t-182 -85q-16 -6 -41.5 -16.5t-46 -26t-29.5 -36.5t7 -48q12 -23 33.5 -36.5 t50.5 -13.5h536q41 0 69 28t28 69h147q0 -51 -19.5 -95.5t-52 -77t-78 -52t-94.5 -19.5h-536q-51 0 -95.5 19.5t-77 52t-52 77t-19.5 95.5z" />
<glyph unicode="\" horiz-adv-x="884" d="M0 1024h170l592 -1024h-170z" />
<glyph unicode="a" horiz-adv-x="1142" d="M0 242v534q0 49 19.5 94t52 78t77 52.5t93.5 19.5h536q49 0 93 -19.5t77 -52.5t52.5 -78t19.5 -94v-534v-11q4 -37 30.5 -62.5t63.5 -27.5v-145q-49 0 -92 18.5t-78 51.5q-33 -31 -76 -48.5t-90 -17.5h-536q-49 0 -93.5 19.5t-77 52t-52 77t-19.5 93.5zM147 242 q0 -41 28 -69t67 -28h536q37 0 63.5 26t30.5 62v5v4v534q0 41 -27.5 68.5t-66.5 27.5h-536q-39 0 -67 -27.5t-28 -68.5v-534z" />
<glyph unicode="b" horiz-adv-x="1144" d="M0 244v536v8v635h147v-419q43 18 97 18h536q49 0 93.5 -19.5t77 -52t52 -77t19.5 -93.5v-536q0 -51 -19.5 -95.5t-52 -77t-77 -52t-93.5 -19.5h-536q-51 0 -95.5 19.5t-77 52t-52 77t-19.5 95.5zM147 244q0 -41 28 -69t69 -28h536q41 0 69 28t28 69v536q0 41 -28 69 t-69 28h-536q-39 0 -66.5 -27t-30.5 -66v-4v-536z" />
<glyph unicode="c" horiz-adv-x="1155" d="M0 244v536q0 49 19.5 94.5t52 78t77 52t95.5 19.5h536q49 0 94.5 -19.5t78 -52t52 -78t19.5 -94.5h-147q0 41 -28 69t-69 28h-536q-41 0 -69 -28t-28 -69v-536q0 -41 28 -69t69 -28h536q41 0 69 28t28 69h147q0 -51 -19.5 -95.5t-52 -77t-78 -52t-94.5 -19.5h-536 q-51 0 -95.5 19.5t-77 52t-52 77t-19.5 95.5z" />
<glyph unicode="d" d="M0 244v536q0 49 19.5 94.5t52 78t77 52t95.5 19.5h536q49 0 97 -20v421h147v-637v-8v-536q0 -51 -19.5 -95.5t-52 -77t-78 -52t-94.5 -19.5h-536q-51 0 -95.5 19.5t-77 52t-52 77t-19.5 95.5zM147 244q0 -41 28 -69t69 -28h536q41 0 69 28t28 69v536v6q-2 37 -30 64 t-67 27h-536q-41 0 -69 -28t-28 -69v-536z" />
<glyph unicode="e" d="M0 244v536q0 49 19.5 94.5t52 78t77 52t95.5 19.5h536q49 0 94.5 -19.5t78 -52t52 -77t19.5 -93.5v-112q-2 -49 -22.5 -91t-53.5 -73t-76 -49.5t-92 -18.5h-633v-194q0 -41 28 -69t69 -28h536q41 0 69 28t28 69h147q0 -51 -19.5 -95.5t-52 -77t-78 -52t-94.5 -19.5h-536 q-51 0 -95.5 19.5t-77 52t-52 77t-19.5 95.5zM147 586h633q39 0 66.5 26.5t30.5 65.5v102q0 41 -28 69t-69 28h-536q-41 0 -69 -28t-28 -69v-194z" />
<glyph unicode="f" horiz-adv-x="471" d="M0 0v1180q0 49 18.5 93t51 76.5t74.5 52t92 21.5h4h108v-147h-108q-39 -2 -66 -29.5t-27 -66.5v-158h201v-145h-201v-877h-147z" />
<glyph unicode="g" d="M0 244v536q0 49 19.5 94.5t52 78t77 52t95.5 19.5h536q49 0 94.5 -19.5t78 -52t52 -78t19.5 -94.5v-536v-19v-626h-147v421q-43 -20 -97 -20h-536q-51 0 -95.5 19.5t-77 52t-52 77t-19.5 95.5zM147 244q0 -41 28 -69t69 -28h536q37 0 64.5 25t32.5 59v13v536q0 41 -28 69 t-69 28h-536q-41 0 -69 -28t-28 -69v-536z" />
<glyph unicode="h" d="M0 0v780v19v622v4h147v-4v-417q23 10 46.5 15t50.5 5h536q49 0 94.5 -19.5t78 -52t52 -78t19.5 -94.5v-780h-147v780q0 41 -28 69t-69 28h-536q-37 0 -64.5 -25t-32.5 -61v-11v-780h-147z" />
<glyph unicode="i" horiz-adv-x="387" d="M0 1184q0 41 29.5 70.5t70.5 29.5t70 -29.5t29 -70.5t-29 -70t-70 -29t-70.5 29t-29.5 70zM27 0v780q0 49 18 93.5t51 78t76 53t92 19.5v-147q-37 -2 -63.5 -30t-26.5 -67v-780h-147z" />
<glyph unicode="j" horiz-adv-x="385" d="M0 -254q39 2 65.5 29.5t26.5 66.5v158v1024h148v-1024v-158q0 -49 -19.5 -93t-51.5 -76.5t-76 -52t-93 -21.5v147zM63 1184q0 41 30 69.5t71 28.5t69.5 -28.5t28.5 -69.5t-28.5 -71t-69.5 -30t-71 30t-30 71z" />
<glyph unicode="k" d="M0 0v344v18v1059v4h147v-4v-852q44 19 97 19h112h424q41 0 69 28.5t28 67.5v346h147v-346q0 -49 -18.5 -92t-51.5 -78q33 -33 51.5 -76t18.5 -94v-344h-147v344q0 41 -28 68.5t-69 27.5h-536q-37 0 -64.5 -24.5t-32.5 -59.5v-63v-293h-147z" />
<glyph unicode="l" horiz-adv-x="362" d="M0 244v1179h147v-1179q0 -39 27 -66.5t66 -30.5v-147q-49 0 -93.5 19.5t-77 53t-51 78t-18.5 93.5z" />
<glyph unicode="m" horiz-adv-x="2019" d="M0 0v780q0 51 19.5 95.5t52 77t77 52t95.5 19.5h534q49 0 93 -18.5t77 -51.5q33 33 76 51.5t94 18.5h535q49 0 94 -19.5t78 -52t52 -77t19 -95.5v-780h-147v780q0 41 -27.5 69t-68.5 28h-535q-39 0 -65.5 -26t-30.5 -60v-11v-780h-148v780v11q-4 35 -30.5 60.5 t-65.5 25.5h-534q-41 0 -69 -28t-28 -69v-780h-147z" />
<glyph unicode="n" horiz-adv-x="1144" d="M0 0v780q0 51 19.5 95.5t52 77t77 52t95.5 19.5h534q51 0 95.5 -19.5t77 -52t52 -77t19.5 -95.5v-780h-148v780q0 41 -27.5 69t-68.5 28h-534q-41 0 -69 -28t-28 -69v-780h-147z" />
<glyph unicode="o" d="M0 244v536q0 49 19.5 94.5t52 78t77 52t95.5 19.5h536q49 0 94.5 -19.5t78 -52t52 -78t19.5 -94.5v-536q0 -51 -19.5 -95.5t-52 -77t-78 -52t-94.5 -19.5h-536q-51 0 -95.5 19.5t-77 52t-52 77t-19.5 95.5zM147 244q0 -41 28 -69t69 -28h536q41 0 69 28t28 69v536 q0 41 -28 69t-69 28h-536q-41 0 -69 -28t-28 -69v-536z" />
<glyph unicode="p" d="M0 225v19v536q0 49 19.5 94.5t52 78t77 52t95.5 19.5h536q49 0 94.5 -19.5t78 -52t52 -78t19.5 -94.5v-536q0 -51 -19.5 -95.5t-52 -77t-78 -52t-94.5 -19.5h-536q-55 0 -97 20v-421h-147v626zM147 231q4 -35 32 -59.5t65 -24.5h536q41 0 69 28t28 69v536q0 41 -28 69 t-69 28h-536q-41 0 -69 -28t-28 -69v-536v-13z" />
<glyph unicode="q" horiz-adv-x="1236" d="M0 244v536q0 51 19.5 95.5t52 77t77 52t95.5 19.5h536q49 0 94.5 -19.5t78 -52t52 -77t19.5 -95.5v-536q0 -4 -1 -8.5t-1 -8.5v-383q0 -39 26.5 -66.5t65.5 -29.5v-147q-49 0 -93 19.5t-76 53t-51.5 77.5t-19.5 93v176q-47 -20 -94 -20h-536q-51 0 -95.5 19.5t-77 52 t-52 78t-19.5 94.5zM147 244q0 -41 28 -69t69 -28h536q37 0 63.5 25t30.5 61v144h3v403q0 41 -28 69t-69 28h-536q-41 0 -69 -28t-28 -69v-536z" />
<glyph unicode="r" d="M0 0v780q0 51 19.5 95.5t52 77t77 52t95.5 19.5h536q49 0 94.5 -19.5t78 -52t52 -77t19.5 -95.5h-147q0 41 -28 69t-69 28h-536q-41 0 -69 -28t-28 -69v-780h-147z" />
<glyph unicode="s" d="M0 244h147q0 -41 28 -69t69 -28h536q41 0 69 28t28 69v100q-2 39 -30 65.5t-67 26.5h-540v2q-49 0 -92.5 19.5t-76 52.5t-52 76t-19.5 92v2v22v78q0 90 37 140.5t84 72.5q53 27 123 31h536q49 0 94.5 -19.5t78 -52t52 -78t19.5 -94.5h-147q0 41 -28 69t-69 28h-536 q-27 -2 -49 -13q-18 -10 -33 -29.5t-15 -54.5v-78v-22q0 -39 28 -66.5t67 -27.5v-2h538q49 0 93.5 -18.5t78 -51.5t53 -76t19.5 -92v-2v-100q0 -51 -19.5 -95.5t-52 -77t-78 -52t-94.5 -19.5h-536q-51 0 -95.5 19.5t-77 52t-52 77t-19.5 95.5z" />
<glyph unicode="t" d="M0 244v1181h147v-419q23 10 44.5 15t46.5 5h6h780v-147h-780q-41 0 -69 -28t-28 -69v-538q0 -39 27 -66.5t66 -30.5h540q41 0 69 28t28 67h147q0 -47 -17.5 -88t-46 -74t-69.5 -53.5t-86 -24.5v-2h-25h-540h-2q-49 2 -92.5 21.5t-76 52t-51 77t-18.5 93.5z" />
<glyph unicode="u" d="M0 244v782h147v-782q0 -41 28 -69t69 -28h536q41 0 69 28t28 69v782h147v-782q0 -51 -19.5 -95.5t-52 -77t-78 -52t-94.5 -19.5h-536q-51 0 -95.5 19.5t-77 52t-52 77t-19.5 95.5z" />
<glyph unicode="v" horiz-adv-x="1142" d="M0 1024h154l245 -782q12 -37 36 -66t65 -29h10h10q41 0 64.5 29t36.5 66l245 782h154l-248 -782q-14 -47 -35.5 -91.5t-52.5 -78t-72 -53t-92 -19.5h-10h-10q-53 0 -93 19.5t-71 53t-53.5 78t-36.5 91.5z" />
<glyph unicode="w" horiz-adv-x="2009" d="M0 1024h154l245 -782q12 -37 36 -66t65 -29h10h10q41 0 64.5 29t36.5 66l245 782h154l246 -782q12 -37 35.5 -66t64.5 -29h10h10q41 0 65 29t36 66l246 782h153l-248 -782q-14 -47 -35.5 -91.5t-52 -78t-71.5 -53t-93 -19.5h-10h-10q-53 0 -93 19.5t-71 53t-53.5 78 t-36.5 91.5l-170 540l-170 -540q-14 -47 -35.5 -91.5t-52.5 -78t-72 -53t-92 -19.5h-10h-10q-53 0 -93 19.5t-71 53t-53.5 78t-36.5 91.5z" />
<glyph unicode="x" horiz-adv-x="1142" d="M0 0l246 422q16 27 36.5 49.5t49.5 40.5q-29 18 -49.5 40.5t-36.5 47.5l-246 424h154l231 -397q14 -25 49 -38.5t75 -13.5t74.5 11.5t49.5 36.5l233 401h154l-246 -424q-16 -25 -36.5 -47.5t-49.5 -40.5q29 -18 49.5 -40.5t36.5 -49.5l246 -422h-154l-225 385 q-14 25 -52 36t-80 11t-80 -13t-52 -38l-223 -381h-154z" />
<glyph unicode="y" d="M0 244v780h147v-780q0 -41 28 -69t69 -28h536q41 0 69 28t28 69v133v647h147v-647v-133v-402q0 -49 -18.5 -93t-51 -76.5t-76.5 -52t-94 -21.5v147q39 2 66 29.5t27 66.5v178q-48 -20 -97 -20h-536q-51 0 -95.5 19.5t-77 52t-52 78t-19.5 94.5z" />
<glyph unicode="z" horiz-adv-x="1161" d="M0 244q0 55 48 104t116 82l690 322q29 14 26 31.5t-12 35.5q0 2 -2 2v2q0 2 -2 2v2l-2 2v2l-2 3q0 2 -2 2v2l-2 2q0 2 -2 2v2q-2 0 -2 2h-2q0 2 -2 2q0 2 -2 2v2q-2 0 -2 2h-2l-2 2l-2 2h-2q0 2 -2 2l-3 2h-2q0 2 -2 2h-2q0 2 -2 2h-2q0 2 -2 2h-2q0 2 -2 2h-2q-2 0 -2 2 h-2h-2l-2 2h-2h-2h-4l-2 3h-2h-2h-3h-2h-4h-2h-536q-41 0 -69 -28t-28 -69h-147q0 49 19.5 94.5t52 78t77 52t95.5 19.5h536h6h7h6q2 0 3 -1t3 -1h6h6q2 -2 6 -2h6q2 -2 7 -2q2 0 3 -1t3 -1q4 0 6 -2h4q2 -2 6 -2q2 -2 6 -2q2 -2 6 -2q0 -2 4 -2q2 -2 3.5 -2t3.5 -3 q4 0 4 -2q2 0 3 -1t3 -1q2 -2 3 -2t3 -2q2 0 4 -2q2 0 3 -1t3 -1l4 -4l4 -2q37 -25 70 -71t46 -96q7 -26 7 -51q0 -23 -6 -45q-12 -46 -63 -71q-96 -45 -181.5 -84t-168 -77.5t-167.5 -78.5t-182 -85q-16 -6 -41.5 -16.5t-46 -26t-29.5 -36.5t7 -48q12 -23 33.5 -36.5 t50.5 -13.5h536q41 0 69 28t28 69h147q0 -51 -19.5 -95.5t-52 -77t-78 -52t-94.5 -19.5h-536q-51 0 -95.5 19.5t-77 52t-52 77t-19.5 95.5z" />
<glyph unicode="&#xad;" horiz-adv-x="786" d="M0 436v148h664v-148h-664z" />
<glyph unicode="&#x2000;" horiz-adv-x="712" />
<glyph unicode="&#x2001;" horiz-adv-x="1425" />
<glyph unicode="&#x2002;" horiz-adv-x="712" />
<glyph unicode="&#x2003;" horiz-adv-x="1425" />
<glyph unicode="&#x2004;" horiz-adv-x="475" />
<glyph unicode="&#x2005;" horiz-adv-x="356" />
<glyph unicode="&#x2006;" horiz-adv-x="237" />
<glyph unicode="&#x2007;" horiz-adv-x="237" />
<glyph unicode="&#x2008;" horiz-adv-x="178" />
<glyph unicode="&#x2009;" horiz-adv-x="285" />
<glyph unicode="&#x200a;" horiz-adv-x="79" />
<glyph unicode="&#x2010;" horiz-adv-x="786" d="M0 436v148h664v-148h-664z" />
<glyph unicode="&#x2011;" horiz-adv-x="786" d="M0 436v148h664v-148h-664z" />
<glyph unicode="&#x2012;" horiz-adv-x="786" d="M0 436v148h664v-148h-664z" />
<glyph unicode="&#x2013;" d="M0 436v148h1024v-148h-1024z" />
<glyph unicode="&#x2014;" horiz-adv-x="2170" d="M0 436v148h2048v-148h-2048z" />
<glyph unicode="&#x202f;" horiz-adv-x="285" />
<glyph unicode="&#x205f;" horiz-adv-x="356" />
<glyph unicode="&#xe000;" horiz-adv-x="1024" d="M0 0v1024h1024v-1024h-1024z" />
</font>
</defs>
</svg>
